<svg width="571" height="164" viewBox="0 0 571 164" fill="none" xmlns="http://www.w3.org/2000/svg">
<mask id="mask0" mask-type="alpha" maskUnits="userSpaceOnUse" x="447" y="142" width="13" height="22">
<path fill-rule="evenodd" clip-rule="evenodd" d="M447.5 142.887H459.744V163.557H447.5V142.887Z" fill="white"/>
</mask>
<g mask="url(#mask0)">
<path fill-rule="evenodd" clip-rule="evenodd" d="M451.929 163.557H459.744L455.316 142.887H447.5L451.929 163.557Z" fill="#E5EEF4"/>
</g>
<mask id="mask1" mask-type="alpha" maskUnits="userSpaceOnUse" x="381" y="142" width="13" height="22">
<path fill-rule="evenodd" clip-rule="evenodd" d="M381.533 142.887H393.696V163.557H381.533V142.887Z" fill="white"/>
</mask>
<g mask="url(#mask1)">
<path fill-rule="evenodd" clip-rule="evenodd" d="M381.533 163.557H389.347L393.696 142.887H385.882L381.533 163.557Z" fill="#D4E3ED"/>
</g>
<path fill-rule="evenodd" clip-rule="evenodd" d="M411.658 58.5776H403.843L387.079 137.462H394.893L411.658 58.5776Z" fill="#D4E3ED"/>
<path fill-rule="evenodd" clip-rule="evenodd" d="M420.372 17.576L416.572 6.10352e-05H416.293L405.299 51.723H413.115L420.372 17.576Z" fill="#D4E3ED"/>
<path fill-rule="evenodd" clip-rule="evenodd" d="M437.05 58.5774H429.235L446.288 137.462H454.103L437.05 58.5774Z" fill="#E5EEF4"/>
<path fill-rule="evenodd" clip-rule="evenodd" d="M424.387 0H424.107H416.572L420.372 17.5759L427.754 51.7229H435.568L424.387 0Z" fill="#E5EEF4"/>
<path fill-rule="evenodd" clip-rule="evenodd" d="M429.235 58.5776H437.05L435.568 51.7227H427.754L429.235 58.5776Z" fill="#D4E3ED"/>
<path fill-rule="evenodd" clip-rule="evenodd" d="M413.115 51.723H405.3L403.843 58.5779H411.658L413.115 51.723Z" fill="#B9D1E1"/>
<path fill-rule="evenodd" clip-rule="evenodd" d="M446.02 136.033L447.501 142.887H455.316L453.834 136.033H446.02Z" fill="#D4E3ED"/>
<path fill-rule="evenodd" clip-rule="evenodd" d="M387.339 136.033L385.881 142.887H393.696L395.153 136.033H387.339Z" fill="#B9D1E1"/>
<path fill-rule="evenodd" clip-rule="evenodd" d="M475.111 163.557H482.925L487.283 142.887H479.468L475.111 163.557Z" fill="#D4E3ED"/>
<path fill-rule="evenodd" clip-rule="evenodd" d="M480.657 137.462H488.472L505.236 58.5777H497.422L480.657 137.462Z" fill="#D4E3ED"/>
<path fill-rule="evenodd" clip-rule="evenodd" d="M510.151 0H509.871L498.878 51.7229H506.693L513.95 17.5759L510.151 0Z" fill="#D4E3ED"/>
<path fill-rule="evenodd" clip-rule="evenodd" d="M530.628 58.5774H522.813L539.866 137.462H547.68L530.628 58.5774Z" fill="#E5EEF4"/>
<path fill-rule="evenodd" clip-rule="evenodd" d="M548.759 142.887H540.945L545.508 163.556H553.322L548.759 142.887Z" fill="#E5EEF4"/>
<path fill-rule="evenodd" clip-rule="evenodd" d="M517.966 0H517.685H510.151L513.95 17.5759L521.331 51.7229H529.146L517.966 0Z" fill="#E5EEF4"/>
<path fill-rule="evenodd" clip-rule="evenodd" d="M522.814 58.5776H530.628L529.146 51.7227H521.332L522.814 58.5776Z" fill="#D4E3ED"/>
<path fill-rule="evenodd" clip-rule="evenodd" d="M506.693 51.723H498.878L497.422 58.5779H505.236L506.693 51.723Z" fill="#B9D1E1"/>
<path fill-rule="evenodd" clip-rule="evenodd" d="M539.463 136.033L540.945 142.887H548.759L547.278 136.033H539.463Z" fill="#D4E3ED"/>
<path fill-rule="evenodd" clip-rule="evenodd" d="M480.925 136.033L479.468 142.887H487.283L488.74 136.033H480.925Z" fill="#B9D1E1"/>
<path fill-rule="evenodd" clip-rule="evenodd" d="M389.333 17.0062L379.397 51.7231H410.026L400.091 17.0062H389.333Z" fill="#B9D1E1"/>
<path fill-rule="evenodd" clip-rule="evenodd" d="M534.517 17.0062H532.455H519.304L525.879 39.9822L529.238 51.7231H544.452L534.517 17.0062Z" fill="#EFF5F9"/>
<path fill-rule="evenodd" clip-rule="evenodd" d="M489.564 17.0062L499.499 51.7231H514.712L504.777 17.0062H489.564Z" fill="#EFF5F9"/>
<path fill-rule="evenodd" clip-rule="evenodd" d="M400.092 17.0062L410.027 51.7231H425.492L415.558 17.0062H400.092Z" fill="#EFF5F9"/>
<path fill-rule="evenodd" clip-rule="evenodd" d="M459.824 17.0062L469.759 51.7231H484.972L475.038 17.0062H459.824Z" fill="#EFF5F9"/>
<path fill-rule="evenodd" clip-rule="evenodd" d="M430.084 17.0062L440.019 51.7231H455.232L445.297 17.0062H430.084Z" fill="#EFF5F9"/>
<path fill-rule="evenodd" clip-rule="evenodd" d="M415.557 17.0062L425.492 51.7231H440.019L430.084 17.0062H415.557Z" fill="#D4E3ED"/>
<path fill-rule="evenodd" clip-rule="evenodd" d="M445.297 17.0062L455.232 51.7231H469.759L459.824 17.0062H445.297Z" fill="#D4E3ED"/>
<path fill-rule="evenodd" clip-rule="evenodd" d="M475.037 17.0062L484.972 51.7231H499.499L489.564 17.0062H475.037Z" fill="#D4E3ED"/>
<path fill-rule="evenodd" clip-rule="evenodd" d="M525.879 39.9825L519.304 17.0059H504.777L514.712 51.7234H522.519H529.24L525.879 39.9825Z" fill="#D4E3ED"/>
<path fill-rule="evenodd" clip-rule="evenodd" d="M534.517 17.0062L544.452 51.7231H553.148L543.212 17.0062H534.517Z" fill="#D4E3ED"/>
<path fill-rule="evenodd" clip-rule="evenodd" d="M505.895 136.033H362.774L372.709 101.316H515.83L505.895 136.033Z" fill="#B9D1E1"/>
<path fill-rule="evenodd" clip-rule="evenodd" d="M571 136.033H393.403L383.467 101.316H561.065L571 136.033Z" fill="#EFF5F9"/>
<path fill-rule="evenodd" clip-rule="evenodd" d="M422.3 136.033H407.773L397.838 101.316H412.365L422.3 136.033Z" fill="#D4E3ED"/>
<path fill-rule="evenodd" clip-rule="evenodd" d="M452.04 136.033H437.513L427.578 101.316H442.105L452.04 136.033Z" fill="#D4E3ED"/>
<path fill-rule="evenodd" clip-rule="evenodd" d="M481.78 136.033H467.253L457.318 101.316H471.845L481.78 136.033Z" fill="#D4E3ED"/>
<path fill-rule="evenodd" clip-rule="evenodd" d="M511.52 136.033H496.993L487.058 101.316H501.585L511.52 136.033Z" fill="#D4E3ED"/>
<path fill-rule="evenodd" clip-rule="evenodd" d="M541.26 136.033H526.733L516.798 101.316H531.325L541.26 136.033Z" fill="#D4E3ED"/>
<path fill-rule="evenodd" clip-rule="evenodd" d="M571 136.033H556.473L546.538 101.316H561.065L571 136.033Z" fill="#D4E3ED"/>
<path fill-rule="evenodd" clip-rule="evenodd" d="M8.54602 160.937H75.8331L74.7241 157.158H9.66932L8.54602 160.937Z" fill="#D4E3ED"/>
<path fill-rule="evenodd" clip-rule="evenodd" d="M61.0333 110.499H23.547L16.6023 133.849H67.8841L61.0333 110.499Z" fill="#D4E3ED"/>
<path fill-rule="evenodd" clip-rule="evenodd" d="M48.7619 68.6804C46.9047 62.2993 37.8713 62.2837 35.9916 68.6572L30.48 87.189H54.1932L48.7619 68.6804Z" fill="#D4E3ED"/>
<path fill-rule="evenodd" clip-rule="evenodd" d="M54.1928 87.1891H30.4796L23.5471 110.499H61.0334L54.1928 87.1891Z" fill="#EFF5F9"/>
<path fill-rule="evenodd" clip-rule="evenodd" d="M16.6025 133.849L9.66931 157.158H74.7241L67.8843 133.849H16.6025Z" fill="#EFF5F9"/>
<path fill-rule="evenodd" clip-rule="evenodd" d="M0.137085 163.557H84.4582V157.158H0.137085V163.557Z" fill="#D4E3ED"/>
<path fill-rule="evenodd" clip-rule="evenodd" d="M88.1798 113.187H134.807V39.4533H134.2C113.061 69.8975 99.8111 90.6316 88.1798 112.378V113.187ZM134.2 136.754H61.5793V111.266C74.323 87.0915 90.2024 61.6041 120.141 17.6068H163.228V112.378H182.445V136.754H163.228V163.557H134.2V136.754Z" fill="#8EB3CE"/>
<path fill-rule="evenodd" clip-rule="evenodd" d="M68.8983 113.187H115.526V39.4533H114.918C93.7798 69.8975 80.5296 90.6316 68.8983 112.378V113.187ZM114.918 136.754H42.2979V111.266C55.0415 87.0915 70.9209 61.6041 100.859 17.6068H143.946V112.378H163.164V136.754H143.946V163.557H114.918V136.754Z" fill="#B9D1E1"/>
<path fill-rule="evenodd" clip-rule="evenodd" d="M249.894 139.638C232.3 139.638 222.021 121.551 222.021 88.8348C222.021 56.4163 232.498 38.4285 249.894 38.4285L198.179 36.5155C198.179 36.5155 197.077 138.871 198.179 139.638C199.281 140.405 242.821 148.671 242.821 148.671L249.894 139.638Z" fill="#8EB3CE"/>
<path fill-rule="evenodd" clip-rule="evenodd" d="M249.894 14.509H231.115L223.791 28.248L258.888 33.2082L264.866 55.5292C264.866 55.5292 258.804 143.435 258.888 144.538C258.971 145.64 231.115 163.556 231.115 163.556H249.894C286.068 163.556 308.01 134.795 308.01 88.7367C308.01 42.678 285.871 14.509 249.894 14.509Z" fill="#8EB3CE"/>
<path fill-rule="evenodd" clip-rule="evenodd" d="M258.888 88.8348C258.888 56.3176 248.608 38.4285 231.115 38.4285C213.719 38.4285 203.243 56.4163 203.243 88.8348C203.243 121.551 213.521 139.638 231.115 139.638C248.708 139.638 258.888 121.551 258.888 88.8348ZM172.899 88.8348C172.899 42.7767 195.137 14.509 231.115 14.509C267.092 14.509 289.231 42.678 289.231 88.7367C289.231 134.795 267.289 163.556 231.115 163.556C194.94 163.556 172.899 134.992 172.899 88.8348Z" fill="#B9D1E1"/>
<path fill-rule="evenodd" clip-rule="evenodd" d="M341.715 113.187H388.343V39.4533H387.735C366.597 69.8975 353.347 90.6316 341.715 112.378V113.187ZM387.735 136.754H315.114V111.266C327.858 87.0915 343.738 61.6041 373.676 17.6068H416.763V112.378H435.981V136.754H416.763V163.557H387.735V136.754Z" fill="#8EB3CE"/>
<path fill-rule="evenodd" clip-rule="evenodd" d="M322.434 113.187H369.061V39.4533H368.454C347.315 69.8975 334.065 90.6316 322.434 112.378V113.187ZM368.454 136.754H295.833V111.266C308.577 87.0915 324.456 61.6041 354.395 17.6068H397.482V112.378H416.699V136.754H397.482V163.557H368.454V136.754Z" fill="#B9D1E1"/>
</svg>
