<svg width="30" height="30" viewBox="0 0 30 30" fill="none" xmlns="http://www.w3.org/2000/svg">
<path fill-rule="evenodd" clip-rule="evenodd" d="M10.3661 6.80242L12.8661 4.35798C13.3543 3.88067 14.1457 3.88067 14.6339 4.35798C15.0845 4.79857 15.1192 5.49185 14.7379 5.97132L14.6339 6.08646L14.2365 6.47258C14.4895 6.45386 14.7442 6.44444 15 6.44444C20.5228 6.44444 25 10.8221 25 16.2222C25 21.6223 20.5228 26 15 26C9.47715 26 5 21.6223 5 16.2222C5 15.5472 5.55964 15 6.25 15C6.94036 15 7.5 15.5472 7.5 16.2222C7.5 20.2723 10.8579 23.5556 15 23.5556C19.1421 23.5556 22.5 20.2723 22.5 16.2222C22.5 12.1721 19.1421 8.88889 15 8.88889C14.7662 8.88889 14.5339 8.89932 14.3037 8.91999L14.6339 9.24687C15.122 9.72418 15.122 10.498 14.6339 10.9754C14.1833 11.4159 13.4742 11.4498 12.9839 11.077L12.8661 10.9754L10.3661 8.53091C9.91551 8.09032 9.88085 7.39703 10.2621 6.91757L10.3661 6.80242L12.8661 4.35798L10.3661 6.80242Z" fill="#727272"/>
</svg>
