<svg width="16" height="16" viewBox="0 0 16 16" fill="none" xmlns="http://www.w3.org/2000/svg">
<path d="M10.781 6.32812H10.0482C9.88878 6.32812 9.73722 6.40469 9.64347 6.53438L7.99971 8.80625L6.35596 6.53438C6.26221 6.40469 6.11221 6.32812 5.95127 6.32812H5.21846C5.1169 6.32812 5.05752 6.44375 5.1169 6.52656L7.89815 10.3703C7.94815 10.4391 8.04971 10.4391 8.09971 10.3703L10.881 6.52656C10.9419 6.44375 10.8825 6.32812 10.781 6.32812Z" fill="#1890FF"/>
<path d="M8 1C4.13438 1 1 4.13438 1 8C1 11.8656 4.13438 15 8 15C11.8656 15 15 11.8656 15 8C15 4.13438 11.8656 1 8 1ZM8 13.8125C4.79063 13.8125 2.1875 11.2094 2.1875 8C2.1875 4.79063 4.79063 2.1875 8 2.1875C11.2094 2.1875 13.8125 4.79063 13.8125 8C13.8125 11.2094 11.2094 13.8125 8 13.8125Z" fill="#1890FF"/>
</svg>
