<svg width="93" height="92" viewBox="0 0 93 92" fill="none" xmlns="http://www.w3.org/2000/svg">
<path opacity="0.4" d="M83.9134 61.0266L59.38 16.8666C56.0834 10.925 51.5217 7.66663 46.5 7.66663C41.4784 7.66663 36.9167 10.925 33.62 16.8666L9.0867 61.0266C5.9817 66.6616 5.6367 72.0666 8.12837 76.3216C10.62 80.5766 15.5267 82.915 21.9667 82.915H71.0334C77.4734 82.915 82.38 80.5766 84.8717 76.3216C87.3634 72.0666 87.0184 66.6233 83.9134 61.0266Z" fill="#EFC311"/>
<path d="M46.5 56.5417C44.9283 56.5417 43.625 55.2383 43.625 53.6667V34.5C43.625 32.9283 44.9283 31.625 46.5 31.625C48.0717 31.625 49.375 32.9283 49.375 34.5V53.6667C49.375 55.2383 48.0717 56.5417 46.5 56.5417Z" fill="#EFC311"/>
<path d="M46.5 69C46.27 69 46.0016 68.9616 45.7333 68.9233C45.5033 68.885 45.2733 68.8083 45.0433 68.6933C44.8133 68.6166 44.5833 68.5016 44.3533 68.3483C44.1616 68.195 43.97 68.0416 43.7783 67.8883C43.0883 67.16 42.6666 66.1633 42.6666 65.1666C42.6666 64.17 43.0883 63.1733 43.7783 62.445C43.97 62.2916 44.1616 62.1383 44.3533 61.985C44.5833 61.8316 44.8133 61.7166 45.0433 61.64C45.2733 61.525 45.5033 61.4483 45.7333 61.41C46.2316 61.295 46.7683 61.295 47.2283 61.41C47.4966 61.4483 47.7266 61.525 47.9566 61.64C48.1866 61.7166 48.4166 61.8316 48.6466 61.985C48.8383 62.1383 49.03 62.2916 49.2216 62.445C49.9116 63.1733 50.3333 64.17 50.3333 65.1666C50.3333 66.1633 49.9116 67.16 49.2216 67.8883C49.03 68.0416 48.8383 68.195 48.6466 68.3483C48.4166 68.5016 48.1866 68.6166 47.9566 68.6933C47.7266 68.8083 47.4966 68.885 47.2283 68.9233C46.9983 68.9616 46.73 69 46.5 69Z" fill="#EFC311"/>
</svg>
