<svg width="36" height="36" viewBox="0 0 36 36" fill="none" xmlns="http://www.w3.org/2000/svg">
<path d="M17 0.577351C17.6188 0.220085 18.3812 0.220085 19 0.57735L32.5885 8.42265C33.2073 8.77991 33.5885 9.44017 33.5885 10.1547V25.8453C33.5885 26.5598 33.2073 27.2201 32.5885 27.5774L19 35.4226C18.3812 35.7799 17.6188 35.7799 17 35.4226L3.41154 27.5774C2.79274 27.2201 2.41154 26.5598 2.41154 25.8453V10.1547C2.41154 9.44017 2.79274 8.77991 3.41154 8.42265L17 0.577351Z" fill="#2CCA73"/>
<path fill-rule="evenodd" clip-rule="evenodd" d="M12 10C10.8954 10 10 10.8954 10 12V24.7586C10 25.8632 10.8954 26.7586 12 26.7586H24.7586C25.8632 26.7586 26.7586 25.8632 26.7586 24.7586V12C26.7586 10.8954 25.8632 10 24.7586 10H12ZM16.9373 21.8496C17.0626 21.8496 17.1833 21.7999 17.2717 21.711L22.7811 16.2011C23.0583 15.9243 23.0583 15.4749 22.7811 15.1978L22.4467 14.8632C22.1699 14.586 21.7205 14.586 21.4433 14.8632L16.9373 19.3693L15.2697 17.7017C14.9925 17.4245 14.5435 17.4245 14.2663 17.7017L13.9318 18.0362C13.6546 18.3129 13.6546 18.7623 13.9318 19.0395L16.6028 21.711C16.6912 21.7999 16.8119 21.8496 16.9373 21.8496Z" fill="white"/>
</svg>
