<svg width="36" height="36" viewBox="0 0 36 36" fill="none" xmlns="http://www.w3.org/2000/svg">
<circle cx="18" cy="18" r="18" fill="#A4A6B5"/>
<circle cx="18" cy="18" r="18" fill="#A4A6B5"/>
<path d="M23.9283 12.0723C20.6587 8.80337 15.3414 8.80337 12.0718 12.0723C8.80355 15.3412 8.80355 20.66 12.0718 23.9289C13.7066 25.563 15.8535 26.3797 18.0004 26.3797C20.1474 26.3797 22.2935 25.563 23.9283 23.9289C27.1973 20.66 27.1973 15.3412 23.9283 12.0723ZM21.458 20.4706C21.7311 20.7438 21.7311 21.1853 21.458 21.4585C21.3217 21.5947 21.1429 21.6632 20.964 21.6632C20.7852 21.6632 20.6063 21.5947 20.4701 21.4585L18.0004 18.9881L15.5314 21.4578C15.3945 21.594 15.2156 21.6625 15.0375 21.6625C14.8586 21.6625 14.6797 21.594 14.5435 21.4578C14.2703 21.1846 14.2703 20.7424 14.5435 20.4699L17.0125 18.0002L14.5428 15.5306C14.2697 15.2574 14.2697 14.8152 14.5428 14.5427C14.8153 14.2695 15.2575 14.2695 15.5307 14.5427L18.0004 17.0124L20.47 14.5427C20.7432 14.2695 21.1847 14.2695 21.4579 14.5427C21.731 14.8152 21.731 15.2574 21.4579 15.5306L18.9882 18.0002L21.458 20.4706Z" fill="white"/>
</svg>
