<svg width="20" height="20" viewBox="0 0 20 20" fill="none" xmlns="http://www.w3.org/2000/svg">
<path opacity="0.4" d="M13.4917 1.66675H6.50833C3.475 1.66675 1.66666 3.47508 1.66666 6.50841V13.4834C1.66666 16.5251 3.475 18.3334 6.50833 18.3334H13.4833C16.5167 18.3334 18.325 16.5251 18.325 13.4917V6.50841C18.3333 3.47508 16.525 1.66675 13.4917 1.66675Z" fill="#374151"/>
<path d="M12.9833 16.0417C12.6417 16.0417 12.3583 15.7584 12.3583 15.4167V12.1667C12.3583 11.8251 12.6417 11.5417 12.9833 11.5417C13.325 11.5417 13.6083 11.8251 13.6083 12.1667V15.4167C13.6083 15.7584 13.325 16.0417 12.9833 16.0417Z" fill="#374151"/>
<path d="M12.9833 6.83325C12.6417 6.83325 12.3583 6.54992 12.3583 6.20825V4.58325C12.3583 4.24159 12.6417 3.95825 12.9833 3.95825C13.325 3.95825 13.6083 4.24159 13.6083 4.58325V6.20825C13.6083 6.54992 13.325 6.83325 12.9833 6.83325Z" fill="#374151"/>
<path d="M7.01667 16.0417C6.675 16.0417 6.39167 15.7584 6.39167 15.4167V13.7917C6.39167 13.4501 6.675 13.1667 7.01667 13.1667C7.35834 13.1667 7.64167 13.4501 7.64167 13.7917V15.4167C7.64167 15.7584 7.36667 16.0417 7.01667 16.0417Z" fill="#374151"/>
<path d="M7.01667 8.45825C6.675 8.45825 6.39167 8.17492 6.39167 7.83325V4.58325C6.39167 4.24159 6.675 3.95825 7.01667 3.95825C7.35834 3.95825 7.64167 4.24159 7.64167 4.58325V7.83325C7.64167 8.17492 7.36667 8.45825 7.01667 8.45825Z" fill="#374151"/>
<path d="M12.9833 6.1084C11.7333 6.1084 10.7083 7.12507 10.7083 8.37507C10.7083 9.62507 11.725 10.6501 12.9833 10.6501C14.2333 10.6501 15.25 9.6334 15.25 8.37507C15.25 7.11673 14.2333 6.1084 12.9833 6.1084Z" fill="#374151"/>
<path d="M7.01667 9.3584C5.76667 9.3584 4.75 10.3751 4.75 11.6334C4.75 12.8917 5.76667 13.9001 7.01667 13.9001C8.26667 13.9001 9.29167 12.8834 9.29167 11.6334C9.29167 10.3834 8.275 9.3584 7.01667 9.3584Z" fill="#374151"/>
</svg>
