<svg width="36" height="36" viewBox="0 0 36 36" fill="none" xmlns="http://www.w3.org/2000/svg">
<path d="M17 0.577351C17.6188 0.220085 18.3812 0.220085 19 0.57735L32.5885 8.42265C33.2073 8.77991 33.5885 9.44017 33.5885 10.1547V25.8453C33.5885 26.5598 33.2073 27.2201 32.5885 27.5774L19 35.4226C18.3812 35.7799 17.6188 35.7799 17 35.4226L3.41154 27.5774C2.79274 27.2201 2.41154 26.5598 2.41154 25.8453V10.1547C2.41154 9.44017 2.79274 8.77991 3.41154 8.42265L17 0.577351Z" fill="#E54C3C"/>
<path fill-rule="evenodd" clip-rule="evenodd" d="M27.2767 24.5152C26.9647 25.0562 26.4049 25.3792 25.7801 25.3792H10.4203C9.79553 25.3792 9.23614 25.0562 8.92375 24.5152C8.61135 23.9742 8.61135 23.328 8.92375 22.787L16.6036 9.48467C16.916 8.94366 17.4754 8.62061 18.1002 8.62061C18.725 8.62061 19.2844 8.94366 19.5968 9.48467L27.2767 22.787C27.5891 23.328 27.5891 23.9742 27.2767 24.5152ZM19.3964 14.2276V17.9099C19.3964 18.6917 18.8743 19.3275 18.2326 19.3275C17.5909 19.3275 17.0688 18.6917 17.0688 17.9099V14.2276C17.0688 13.4461 17.5909 12.8103 18.2326 12.8103C18.8743 12.8103 19.3964 13.4461 19.3964 14.2276ZM18.2326 23.0516C18.8743 23.0516 19.3964 22.5295 19.3964 21.8878C19.3964 21.2461 18.8743 20.7241 18.2326 20.7241C17.5909 20.7241 17.0688 21.2461 17.0688 21.8878C17.0688 22.5295 17.5909 23.0516 18.2326 23.0516Z" fill="white"/>
</svg>
