<svg width="36" height="36" viewBox="0 0 36 36" fill="none" xmlns="http://www.w3.org/2000/svg">
<circle cx="18" cy="18" r="18" fill="#2CCA73"/>
<circle cx="18" cy="18" r="18" fill="#2CCA73"/>
<path fill-rule="evenodd" clip-rule="evenodd" d="M11.6206 9.62061C10.516 9.62061 9.62061 10.516 9.62061 11.6206V24.3792C9.62061 25.4838 10.516 26.3792 11.6206 26.3792H24.3792C25.4838 26.3792 26.3792 25.4838 26.3792 24.3792V11.6206C26.3792 10.516 25.4838 9.62061 24.3792 9.62061H11.6206ZM16.5579 21.4702C16.6832 21.4702 16.8039 21.4205 16.8923 21.3316L22.4017 15.8217C22.6789 15.5449 22.6789 15.0955 22.4017 14.8184L22.0673 14.4838C21.7905 14.2066 21.3411 14.2066 21.0639 14.4838L16.5579 18.9899L14.8903 17.3223C14.6131 17.0451 14.1641 17.0451 13.8869 17.3223L13.5524 17.6568C13.2752 17.9335 13.2752 18.3829 13.5524 18.6601L16.2234 21.3316C16.3119 21.4205 16.4325 21.4702 16.5579 21.4702Z" fill="white"/>
</svg>
