<svg width="18" height="18" viewBox="0 0 18 18" fill="none" xmlns="http://www.w3.org/2000/svg">
<path fill-rule="evenodd" clip-rule="evenodd" d="M2.45238 3.25H9V6.75L8.9998 6.75012H8.92853C8.37624 6.75012 7.92853 7.19784 7.92853 7.75012V10.25H2.45238L2.45238 3.25ZM7.92853 11.25H2.45238C1.9264 11.25 1.5 10.8023 1.5 10.25V3.25C1.5 2.69772 1.9264 2.25 2.45238 2.25H9.11905C9.64503 2.25 10.0714 2.69772 10.0714 3.25V6.75012H15.5C16.0522 6.75012 16.5 7.19784 16.5 7.75012V14.7501C16.5 15.3024 16.0522 15.7501 15.5 15.7501H8.92853C8.37624 15.7501 7.92853 15.3024 7.92853 14.7501V11.25ZM8.92853 7.75012H15.5L15.5 14.7501H8.92853L8.92853 7.75012Z" fill="#A2A7B3"/>
<path d="M4.86035 8.99988H3.64282L5.01458 4.49988H6.55678L7.92854 8.99988H6.711L5.80191 5.73914H5.76945L4.86035 8.99988ZM5.33147 7.31007H6.23989L6.47087 8.13855H5.10049L5.33147 7.31007Z" fill="#A2A7B3"/>
<path d="M11.1854 11.9385C11.2765 12.0767 11.3768 12.2094 11.4857 12.3356C11.1404 12.5116 10.7484 12.5997 10.3094 12.6V13.5C11.0279 13.5 11.6699 13.3198 12.2142 12.9706C12.7586 13.3198 13.4005 13.5 14.119 13.5V12.6C13.681 12.6 13.2889 12.5118 12.9428 12.3354C13.0517 12.2093 13.1519 12.0767 13.243 11.9385C13.5175 11.5168 13.7194 11.0566 13.8411 10.575H14.3571V9.675H12.6904V9H11.738V9.675H10.0714V10.575H10.5874C10.709 11.0566 10.9109 11.5168 11.1854 11.9385V11.9385ZM12.855 10.575C12.7565 10.8865 12.6154 11.1845 12.4353 11.4615C12.3681 11.5636 12.2942 11.6618 12.2142 11.7553C12.14 11.6687 12.0712 11.578 12.008 11.4839C11.8206 11.2007 11.6744 10.895 11.5733 10.575H12.855Z" fill="#A2A7B3"/>
</svg>
