<svg width="25" height="25" viewBox="0 0 25 25" fill="none" xmlns="http://www.w3.org/2000/svg">
<mask id="mask0" mask-type="alpha" maskUnits="userSpaceOnUse" x="0" y="0" width="25" height="25">
<circle cx="12.5" cy="12.5" r="12.5" fill="#C4C4C4"/>
</mask>
<g mask="url(#mask0)">
<circle cx="12.8571" cy="12.8571" r="12.8571" fill="#EDF2F7"/>
<path d="M17.8555 16.5646C17.8555 17.2788 17.2765 17.8577 16.5623 17.8577C15.8482 17.8577 15.2692 17.2788 15.2692 16.5646C15.2692 15.8504 15.8482 15.2715 16.5623 15.2715C17.2765 15.2715 17.8555 15.8504 17.8555 16.5646Z" fill="#43536D"/>
<path d="M17.8555 12.5002C17.8555 13.2143 17.2765 13.7933 16.5623 13.7933C15.8482 13.7933 15.2692 13.2143 15.2692 12.5002C15.2692 11.786 15.8482 11.207 16.5623 11.207C17.2765 11.207 17.8555 11.786 17.8555 12.5002Z" fill="#43536D"/>
<path d="M17.8555 8.4357C17.8555 9.14988 17.2765 9.72883 16.5623 9.72883C15.8482 9.72883 15.2692 9.14988 15.2692 8.4357C15.2692 7.72153 15.8482 7.14258 16.5623 7.14258C17.2765 7.14258 17.8555 7.72153 17.8555 8.4357Z" fill="#43536D"/>
<path d="M13.793 16.5646C13.793 17.2788 13.214 17.8577 12.4998 17.8577C11.7857 17.8577 11.2067 17.2788 11.2067 16.5646C11.2067 15.8504 11.7857 15.2715 12.4998 15.2715C13.214 15.2715 13.793 15.8504 13.793 16.5646Z" fill="#43536D"/>
<path d="M13.793 12.5002C13.793 13.2143 13.214 13.7933 12.4998 13.7933C11.7857 13.7933 11.2067 13.2143 11.2067 12.5002C11.2067 11.786 11.7857 11.207 12.4998 11.207C13.214 11.207 13.793 11.786 13.793 12.5002Z" fill="#43536D"/>
<path d="M13.793 8.4357C13.793 9.14988 13.214 9.72883 12.4998 9.72883C11.7857 9.72883 11.2067 9.14988 11.2067 8.4357C11.2067 7.72153 11.7857 7.14258 12.4998 7.14258C13.214 7.14258 13.793 7.72153 13.793 8.4357Z" fill="#43536D"/>
<path d="M9.73047 16.5646C9.73047 17.2788 9.15152 17.8577 8.43734 17.8577C7.72317 17.8577 7.14422 17.2788 7.14422 16.5646C7.14422 15.8504 7.72317 15.2715 8.43734 15.2715C9.15152 15.2715 9.73047 15.8504 9.73047 16.5646Z" fill="#43536D"/>
<path d="M9.73047 12.5002C9.73047 13.2143 9.15152 13.7933 8.43734 13.7933C7.72317 13.7933 7.14422 13.2143 7.14422 12.5002C7.14422 11.786 7.72317 11.207 8.43734 11.207C9.15152 11.207 9.73047 11.786 9.73047 12.5002Z" fill="#43536D"/>
<path d="M9.73047 8.4357C9.73047 9.14988 9.15152 9.72883 8.43734 9.72883C7.72317 9.72883 7.14422 9.14988 7.14422 8.4357C7.14422 7.72153 7.72317 7.14258 8.43734 7.14258C9.15152 7.14258 9.73047 7.72153 9.73047 8.4357Z" fill="#43536D"/>
</g>
</svg>
