<svg width="20" height="20" viewBox="0 0 20 20" fill="none" xmlns="http://www.w3.org/2000/svg">
<path d="M17.5583 4.35842C16.2167 4.22508 14.875 4.12508 13.525 4.05008V4.04175L13.3417 2.95841C13.2167 2.19175 13.0333 1.04175 11.0833 1.04175H8.9C6.95833 1.04175 6.775 2.14175 6.64166 2.95008L6.46666 4.01675C5.69166 4.06675 4.91666 4.11675 4.14166 4.19175L2.44166 4.35842C2.09166 4.39175 1.84166 4.70008 1.875 5.04175C1.90833 5.38342 2.20833 5.63342 2.55833 5.60008L4.25833 5.43342C8.625 5.00008 13.025 5.16675 17.4417 5.60842C17.4667 5.60842 17.4833 5.60842 17.5083 5.60842C17.825 5.60842 18.1 5.36675 18.1333 5.04175C18.1583 4.70008 17.9083 4.39175 17.5583 4.35842Z" fill="#E64D3D"/>
<path opacity="0.3991" d="M16.025 6.78325C15.825 6.57492 15.55 6.45825 15.2667 6.45825H4.73333C4.45 6.45825 4.16667 6.57492 3.975 6.78325C3.78333 6.99159 3.675 7.27492 3.69167 7.56659L4.20833 16.1166C4.3 17.3833 4.41667 18.9666 7.325 18.9666H12.675C15.5833 18.9666 15.7 17.3916 15.7917 16.1166L16.3083 7.57492C16.325 7.27492 16.2167 6.99159 16.025 6.78325Z" fill="#E64D3D"/>
<path fill-rule="evenodd" clip-rule="evenodd" d="M7.98333 14.1667C7.98333 13.8216 8.26315 13.5417 8.60833 13.5417H11.3833C11.7285 13.5417 12.0083 13.8216 12.0083 14.1667C12.0083 14.5119 11.7285 14.7917 11.3833 14.7917H8.60833C8.26315 14.7917 7.98333 14.5119 7.98333 14.1667Z" fill="#E64D3D"/>
<path fill-rule="evenodd" clip-rule="evenodd" d="M7.29166 10.8333C7.29166 10.4881 7.57149 10.2083 7.91666 10.2083H12.0833C12.4285 10.2083 12.7083 10.4881 12.7083 10.8333C12.7083 11.1784 12.4285 11.4583 12.0833 11.4583H7.91666C7.57149 11.4583 7.29166 11.1784 7.29166 10.8333Z" fill="#E64D3D"/>
</svg>
