<svg width="20" height="20" viewBox="0 0 20 20" fill="none" xmlns="http://www.w3.org/2000/svg">
<path d="M10.0002 7.50008V1.66675L8.3335 3.33341" fill="#111827"/>
<path d="M10.0002 7.50008V1.66675L8.3335 3.33341" stroke="#111827" stroke-width="1.5" stroke-linecap="round" stroke-linejoin="round"/>
<path d="M10 1.66675L11.6667 3.33341" stroke="#111827" stroke-width="1.5" stroke-linecap="round" stroke-linejoin="round"/>
<path d="M1.6499 10.8333H5.3249C5.64157 10.8333 5.9249 11.0083 6.06657 11.2916L7.04157 13.2416C7.3249 13.8083 7.8999 14.1666 8.53324 14.1666H11.4749C12.1082 14.1666 12.6832 13.8083 12.9666 13.2416L13.9416 11.2916C14.0832 11.0083 14.3749 10.8333 14.6832 10.8333H18.3166" stroke="#111827" stroke-width="1.5" stroke-linecap="round" stroke-linejoin="round"/>
<path d="M5.83317 4.2749C2.88317 4.70824 1.6665 6.44157 1.6665 9.9999V12.4999C1.6665 16.6666 3.33317 18.3332 7.49984 18.3332H12.4998C16.6665 18.3332 18.3332 16.6666 18.3332 12.4999V9.9999C18.3332 6.44157 17.1165 4.70824 14.1665 4.2749" stroke="#111827" stroke-width="1.5" stroke-linecap="round" stroke-linejoin="round"/>
</svg>
