<svg width="16" height="16" viewBox="0 0 16 16" fill="none" xmlns="http://www.w3.org/2000/svg">
<path d="M8.10167 5.62972C8.09016 5.61375 8.07502 5.60075 8.0575 5.59177C8.03997 5.5828 8.02057 5.57812 8.00088 5.57812C7.9812 5.57812 7.9618 5.5828 7.94427 5.59177C7.92675 5.60075 7.91161 5.61375 7.9001 5.62972L5.11885 9.47347C5.05948 9.55628 5.11885 9.67191 5.22041 9.67191H5.95323C6.1126 9.67191 6.26416 9.59534 6.35791 9.46566L8.0001 7.19378L9.64386 9.46566C9.73761 9.59534 9.88761 9.67191 10.0485 9.67191H10.7814C10.8829 9.67191 10.9423 9.55628 10.8829 9.47347L8.10167 5.62972Z" fill="#1890FF"/>
<path d="M8 1C4.13438 1 1 4.13438 1 8C1 11.8656 4.13438 15 8 15C11.8656 15 15 11.8656 15 8C15 4.13438 11.8656 1 8 1ZM8 13.8125C4.79063 13.8125 2.1875 11.2094 2.1875 8C2.1875 4.79063 4.79063 2.1875 8 2.1875C11.2094 2.1875 13.8125 4.79063 13.8125 8C13.8125 11.2094 11.2094 13.8125 8 13.8125Z" fill="#1890FF"/>
</svg>
