<svg width="64" height="64" viewBox="0 0 64 64" fill="none" xmlns="http://www.w3.org/2000/svg">
<circle cx="32" cy="32" r="32" fill="#616161"/>
<path d="M46.9139 27.434C46.3071 20.6077 40.5989 15.3334 33.6666 15.3334C28.2069 15.3334 23.3477 18.6742 21.345 23.6813C21.2853 23.6801 21.2264 23.6667 21.1666 23.6667C16.1121 23.6667 12 27.7788 12 32.8334C12 37.8879 16.1121 42 21.1666 42H44.5C48.6358 42 52 38.6357 52 34.5C52 31.2135 49.8619 28.4451 46.9139 27.434Z" fill="#303C42"/>
<path d="M44.5 40.3334H21.1666C17.0308 40.3334 13.6666 36.9691 13.6666 32.8334C13.6666 28.6977 17.0309 25.3334 21.1666 25.3334C22.7674 25.3334 24.3665 25.8672 25.6694 26.8356C26.0405 27.1107 26.563 27.0326 26.8355 26.6639C27.1098 26.2945 27.0333 25.7728 26.6638 25.4977C25.5944 24.7029 24.3551 24.1727 23.0658 23.8952C24.9128 19.7454 29.0399 17 33.6666 17C39.5583 17 44.4448 21.3511 45.2058 27.0713C44.9699 27.0488 44.7417 27 44.5 27C44.0394 27 43.6666 27.3727 43.6666 27.8334C43.6666 28.294 44.0394 28.6667 44.5 28.6667C47.7162 28.6667 50.3333 31.2839 50.3333 34.5001C50.3333 37.7163 47.7162 40.3334 44.5 40.3334Z" fill="#F2F2F2"/>
<path opacity="0.1" d="M46.3609 28.9991C47.2658 30.0272 47.8334 31.3596 47.8334 32.8334C47.8334 36.0495 45.2162 38.6667 42 38.6667H18.6667C17.6663 38.6667 16.7148 38.4619 15.8414 38.1049C17.2015 39.4789 19.085 40.3335 21.1667 40.3335H44.5C47.7162 40.3335 50.3334 37.7163 50.3334 34.5001C50.3334 31.9383 48.6619 29.7809 46.3609 28.9991Z" fill="black"/>
<path d="M32.8334 48.6666C37.896 48.6666 42 44.5626 42 39.5C42 34.4374 37.896 30.3334 32.8334 30.3334C27.7708 30.3334 23.6667 34.4374 23.6667 39.5C23.6667 44.5626 27.7708 48.6666 32.8334 48.6666Z" fill="#303C42"/>
<path d="M40.3334 39.5C40.3334 41.2675 39.6933 42.8724 38.6668 44.1558L28.1785 33.6659C29.4616 32.6398 31.0662 32 32.8334 32C36.9691 32 40.3334 35.3643 40.3334 39.5Z" fill="white"/>
<path d="M25.3334 39.5C25.3334 37.7325 25.9735 36.1276 26.9999 34.8442L37.4883 45.3341C36.2052 46.3603 34.6005 47 32.8334 47C28.6976 47 25.3334 43.6358 25.3334 39.5Z" fill="white"/>
<path d="M46.9139 27.434C46.3071 20.6077 40.5989 15.3334 33.6666 15.3334C28.2069 15.3334 23.3477 18.6742 21.345 23.6813C21.2853 23.6801 21.2264 23.6667 21.1666 23.6667C16.1121 23.6667 12 27.7788 12 32.8334C12 37.8879 16.1121 42 21.1666 42H24.022C25.1141 45.8417 28.647 48.6667 32.8333 48.6667C37.0196 48.6667 40.5524 45.8417 41.6445 42H44.5C48.6358 42 52 38.6357 52 34.5C52 31.2135 49.8619 28.4451 46.9139 27.434Z" fill="url(#paint0_linear)"/>
<defs>
<linearGradient id="paint0_linear" x1="15.4207" y1="23.4683" x2="50.3296" y2="39.7461" gradientUnits="userSpaceOnUse">
<stop stop-color="white" stop-opacity="0.2"/>
<stop offset="1" stop-color="white" stop-opacity="0"/>
</linearGradient>
</defs>
</svg>
