<svg width="64" height="64" viewBox="0 0 64 64" fill="none" xmlns="http://www.w3.org/2000/svg">
<circle cx="32" cy="32" r="32" fill="#E24C4B"/>
<g clip-path="url(#clip0)">
<path d="M49.5688 43.2773L34.9479 17.3225C33.7012 15.0557 30.301 15.0557 29.0542 17.3225L14.4335 43.2773C13.1868 45.544 14.7735 48.3775 17.3803 48.3775H46.5086C49.2287 48.2642 50.8155 45.544 49.5688 43.2773Z" fill="white"/>
<path d="M32.0007 19.0226L46.6216 44.9773H17.38L32.0007 19.0226Z" fill="white"/>
<path d="M29.6207 30.9233L30.5274 36.9303C30.6407 37.6103 31.2074 38.177 32.0008 38.177C32.6808 38.177 33.3609 37.6103 33.4743 36.9303L34.381 30.9233C34.6076 29.4499 33.4743 28.2032 32.0008 28.2032C30.5273 28.2031 29.5073 29.4499 29.6207 30.9233Z" fill="#3F4448"/>
<path d="M32.0007 42.1439C32.7519 42.1439 33.3608 41.5349 33.3608 40.7838C33.3608 40.0326 32.7519 39.4237 32.0007 39.4237C31.2496 39.4237 30.6406 40.0326 30.6406 40.7838C30.6406 41.5349 31.2496 42.1439 32.0007 42.1439Z" fill="#3F4448"/>
</g>
<defs>
<clipPath id="clip0">
<rect width="36" height="36" fill="white" transform="translate(14 14)"/>
</clipPath>
</defs>
</svg>
