<svg width="64" height="64" viewBox="0 0 64 64" fill="none" xmlns="http://www.w3.org/2000/svg">
<circle cx="32" cy="32" r="32" fill="#E24C4B"/>
<path d="M51.7848 29.101C51.7056 28.5709 51.2771 28.1621 50.7439 28.108L49.0102 27.9323C48.5837 26.1316 47.8777 24.428 46.9035 22.8484L48.0071 21.4949C48.3466 21.0786 48.3595 20.4848 48.0385 20.0541C46.8795 18.4988 45.5028 17.1213 43.9466 15.96C43.5156 15.6383 42.921 15.6513 42.5043 15.9915L41.1528 17.0955C39.5715 16.1212 37.8668 15.4143 36.0662 14.9864L35.8894 13.2514C35.8349 12.7173 35.4244 12.2885 34.8933 12.2108C32.9734 11.9297 31.0266 11.9297 29.1067 12.2108C28.5756 12.2885 28.1651 12.7173 28.1107 13.2514L27.9338 14.9864C26.1332 15.4143 24.4286 16.1212 22.8472 17.0955L21.4957 15.9915C21.0792 15.6513 20.4846 15.6383 20.0534 15.96C18.4973 17.1214 17.1206 18.4989 15.9615 20.0541C15.6406 20.4848 15.6535 21.0787 15.9929 21.4949L17.0965 22.8484C16.1224 24.4279 15.4163 26.1316 14.9898 27.9323L13.2561 28.108C12.7229 28.1621 12.2944 28.5709 12.2153 29.101C11.9282 31.0247 11.9282 32.9754 12.2153 34.8991C12.2944 35.4291 12.7229 35.838 13.2561 35.892L14.9898 36.0678C15.4163 37.8684 16.1224 39.5721 17.0965 41.1516L15.9931 42.5052C15.6536 42.9215 15.6407 43.5152 15.9617 43.9459C17.1208 45.5013 18.4975 46.8788 20.0537 48.0401C20.4848 48.3617 21.0794 48.3488 21.4959 48.0085L22.8475 46.9045C24.4288 47.8789 26.1335 48.5858 27.934 49.0137L28.1109 50.7487C28.1653 51.2827 28.5758 51.7116 29.107 51.7893C31.6765 52.1654 33.7534 51.9562 34.8935 51.7893C35.4247 51.7116 35.8352 51.2827 35.8896 50.7487L36.0665 49.0137C37.867 48.5858 39.5717 47.8789 41.153 46.9045L42.5046 48.0085C42.9211 48.3488 43.5157 48.3618 43.9468 48.0401C45.503 46.8787 46.8797 45.5012 48.0388 43.9459C48.3597 43.5152 48.3468 42.9214 48.0074 42.5052L46.9038 41.1516C47.8779 39.5722 48.5839 37.8684 49.0105 36.0678L50.7441 35.892C51.2773 35.838 51.7058 35.4291 51.785 34.8991C52.0717 32.9754 52.0717 31.0247 51.7848 29.101V29.101ZM49.5769 33.6545L47.922 33.8223C47.4036 33.8749 46.9822 34.2634 46.8877 34.7759C46.5034 36.8621 45.6963 38.8098 44.4892 40.5648C44.1941 40.9938 44.2175 41.566 44.5464 41.9695L45.5981 43.2595C44.8935 44.1105 44.1109 44.8934 43.2597 45.5992L41.9726 44.5479C41.5693 44.2184 40.9968 44.1946 40.5679 44.4895C38.8094 45.6974 36.8601 46.5056 34.7738 46.892C34.2621 46.9867 33.8741 47.4077 33.8214 47.9254L33.6529 49.5786C32.5534 49.6821 31.447 49.6821 30.3474 49.5786L30.1789 47.9254C30.1261 47.4077 29.7382 46.9867 29.2265 46.892C27.1403 46.5056 25.1909 45.6973 23.4325 44.4895C23.0032 44.1946 22.4309 44.2185 22.0277 44.5479L20.7406 45.5992C19.8895 44.8934 19.1069 44.1105 18.4022 43.2595L19.4539 41.9695C19.783 41.566 19.8063 40.9938 19.5112 40.5648C18.304 38.8097 17.497 36.862 17.1126 34.7758C17.0181 34.2634 16.5967 33.8748 16.0783 33.8223L14.4235 33.6545C14.3176 32.5535 14.3176 31.4463 14.4235 30.3454L16.0783 30.1776C16.5967 30.125 17.0181 29.7365 17.1126 29.2241C17.497 27.1378 18.304 25.1901 19.5112 23.4351C19.8062 23.0061 19.7829 22.4339 19.4539 22.0304L18.4022 20.7405C19.1069 19.8894 19.8895 19.1065 20.7406 18.4007L22.0277 19.452C22.4309 19.7814 23.0033 19.8052 23.4325 19.5104C25.1909 18.3026 27.1403 17.4943 29.2265 17.108C29.7382 17.0132 30.1262 16.5922 30.1789 16.0745L30.3474 14.4213C31.447 14.3178 32.5534 14.3178 33.6529 14.4213L33.8214 16.0745C33.8742 16.5922 34.2622 17.0132 34.7738 17.108C36.8601 17.4943 38.8094 18.3026 40.5679 19.5104C40.9971 19.8053 41.5693 19.7813 41.9726 19.452L43.2597 18.4007C44.1109 19.1065 44.8935 19.8894 45.5981 20.7405L44.5464 22.0304C44.2174 22.4339 44.194 23.0061 44.4892 23.4351C45.6963 25.1902 46.5034 27.138 46.8877 29.2241C46.9822 29.7366 47.4036 30.1251 47.922 30.1777L49.5769 30.3455C49.6828 31.4464 49.6828 32.5536 49.5769 33.6545Z" fill="white"/>
<path d="M32.0001 19.5309C25.1248 19.5309 19.5314 25.1244 19.5314 31.9997C19.5314 38.875 25.1248 44.4685 32.0001 44.4685C38.8754 44.4685 44.4688 38.875 44.4688 31.9997C44.4688 25.1244 38.8754 19.5309 32.0001 19.5309ZM32.0001 42.1247C26.4172 42.1247 21.8752 37.5827 21.8752 31.9997C21.8752 26.4167 26.4172 21.8747 32.0001 21.8747C37.583 21.8747 42.125 26.4167 42.125 31.9997C42.125 37.5827 37.583 42.1247 32.0001 42.1247Z" fill="white"/>
<path d="M37.0209 25.807H32.6277C29.5592 25.807 27.0627 28.3035 27.0627 31.3721V35.2799L26.1507 36.1918C25.6931 36.6495 25.6931 37.3914 26.1507 37.8491C26.6083 38.3068 27.3503 38.3068 27.808 37.8491L28.72 36.9371H32.6278C35.6964 36.9371 38.1929 34.4407 38.1929 31.3721V26.9789C38.1928 26.3317 37.6681 25.807 37.0209 25.807ZM35.8491 31.3721C35.8491 33.1484 34.404 34.5935 32.6277 34.5935H31.0636L33.4563 32.2007C33.914 31.7431 33.914 31.0011 33.4563 30.5435C32.9988 30.0858 32.2567 30.0858 31.7991 30.5435L29.4064 32.9362V31.3721C29.4064 29.5958 30.8514 28.1507 32.6277 28.1507H35.849V31.3721H35.8491Z" fill="white"/>
</svg>
