<svg width="48" height="48" viewBox="0 0 48 48" fill="none" xmlns="http://www.w3.org/2000/svg">
<circle cx="24" cy="24" r="24" fill="#FAAD14"/>
<path d="M30.2868 14.3756L30.3026 14.3949L30.2868 14.3756L29.4896 15.0267C28.5479 14.4486 27.5336 14.028 26.4628 13.7716L26.3585 12.7483C26.3247 12.4165 26.0696 12.15 25.7396 12.1017C24.5853 11.9328 23.4147 11.9328 22.2604 12.1017C21.9304 12.15 21.6754 12.4165 21.6415 12.7483L21.5372 13.7716C20.4664 14.028 19.4521 14.4486 18.5104 15.0267L17.7132 14.3756C17.4545 14.1642 17.085 14.1561 16.8171 14.356L16.8171 14.356C15.8815 15.0542 15.0537 15.8825 14.3569 16.8175C14.1574 17.0851 14.1655 17.4541 14.3764 17.7127L15.0273 18.5111C14.4493 19.4517 14.0293 20.4654 13.7737 21.5363L12.7512 21.64C12.4199 21.6735 12.1536 21.9276 12.1044 22.2569C11.9319 23.4136 11.9319 24.5865 12.1044 25.7431C12.1536 26.0725 12.4199 26.3265 12.7512 26.3601L13.7737 26.4638C14.0293 27.5346 14.4493 28.5483 15.0273 29.489L14.3765 30.2873C14.1655 30.546 14.1575 30.9149 14.357 31.1825C15.0539 32.1176 15.8816 32.9458 16.8172 33.6441L16.8322 33.6241L16.8173 33.6441C17.0851 33.8439 17.4545 33.8359 17.7134 33.6245L18.5105 32.9733C19.4523 33.5514 20.4665 33.972 21.5373 34.2284L21.6417 35.2517C21.6755 35.5836 21.9305 35.85 22.2606 35.8983C23.8055 36.1245 25.0542 35.9987 25.7397 35.8983C26.0698 35.85 26.3248 35.5836 26.3586 35.2517L26.463 34.2284C27.5338 33.972 28.548 33.5514 29.4898 32.9733L30.2869 33.6245C30.5457 33.8359 30.9152 33.844 31.1831 33.6441C32.1187 32.9458 32.9464 32.1176 33.6433 31.1825C33.8427 30.9149 33.8347 30.5459 33.6238 30.2873L32.9729 29.489C33.5508 28.5483 33.9709 27.5346 34.2265 26.4638L35.249 26.3601C35.5803 26.3265 35.8465 26.0725 35.8957 25.7431C36.0681 24.5865 36.0681 23.4136 35.8956 22.2569C35.8464 21.9276 35.5802 21.6735 35.2489 21.64L34.2264 21.5363C33.9708 20.4654 33.5507 19.4517 32.9727 18.5111L33.6236 17.7127C33.8346 17.4541 33.8426 17.0851 33.6432 16.8175C32.9463 15.8824 32.1185 15.0542 31.1829 14.356C30.9151 14.1561 30.5457 14.1642 30.2868 14.3756ZM29.9994 16.4906L29.9836 16.4712L29.9994 16.4906L30.7557 15.8728C31.2538 16.2875 31.7125 16.7464 32.1265 17.2444L31.5085 18.0024C31.304 18.2531 31.2895 18.6087 31.4729 18.8752C32.1952 19.9254 32.6781 21.0908 32.9081 22.339C32.9668 22.6574 33.2286 22.8988 33.5507 22.9315L34.5232 23.0301C34.584 23.6755 34.584 24.3245 34.5232 24.9699L33.5507 25.0685C33.2286 25.1012 32.9668 25.3426 32.9081 25.661C32.6781 26.9093 32.1952 28.0746 31.4729 29.1247C31.2896 29.3913 31.3041 29.7468 31.5085 29.9975L32.1265 30.7555C31.7125 31.2536 31.2538 31.7124 30.7557 32.1271L29.9994 31.5094C29.7488 31.3047 29.3931 31.2899 29.1266 31.4731C28.0744 32.1958 26.908 32.6794 25.6597 32.9106C25.3418 32.9695 25.1007 33.231 25.068 33.5527L24.969 34.5242C24.3243 34.5836 23.6759 34.5836 23.0313 34.5242L22.9322 33.5527C22.8994 33.231 22.6584 32.9695 22.3405 32.9106C21.0922 32.6794 19.9258 32.1958 18.8736 31.4731C18.6069 31.2899 18.2513 31.3047 18.0008 31.5094L17.2445 32.1271C16.7464 31.7124 16.2877 31.2536 15.8737 30.7555L16.4917 29.9975C16.6962 29.7468 16.7107 29.3913 16.5273 29.1247C15.805 28.0745 15.3221 26.9092 15.0921 25.6609C15.0335 25.3426 14.7716 25.1012 14.4495 25.0685L13.477 24.9699C13.4162 24.3244 13.4162 23.6755 13.477 23.03L14.4495 22.9314C14.7716 22.8987 15.0335 22.6574 15.0921 22.339C15.3221 21.0907 15.805 19.9253 16.5273 18.8752C16.7106 18.6087 16.6961 18.2531 16.4917 18.0024L15.8737 17.2444C16.2877 16.7464 16.7464 16.2875 17.2445 15.8728L18.0008 16.4906C18.2513 16.6952 18.607 16.71 18.8736 16.5268C19.9258 15.8041 21.0922 15.3205 22.3405 15.0894C22.6584 15.0305 22.8995 14.7689 22.9322 14.4472L23.0313 13.4758C23.6759 13.4163 24.3243 13.4163 24.969 13.4758L25.068 14.4472C25.1008 14.7689 25.3418 15.0305 25.6597 15.0894C26.908 15.3205 28.0744 15.8042 29.1266 16.5268C29.3933 16.7101 29.7488 16.6952 29.9994 16.4906Z" fill="white" stroke="white" stroke-width="0.05"/>
<path d="M24.0001 16.4936C19.8611 16.4936 16.4938 19.8608 16.4938 23.9998C16.4938 28.1388 19.8611 31.5061 24.0001 31.5061C28.139 31.5061 31.5063 28.1388 31.5063 23.9998C31.5063 19.8608 28.139 16.4936 24.0001 16.4936ZM24.0001 30.0498C20.6641 30.0498 17.9501 27.3358 17.9501 23.9998C17.9501 20.6638 20.6641 17.9498 24.0001 17.9498C27.336 17.9498 30.05 20.6638 30.05 23.9998C30.05 27.3358 27.336 30.0498 24.0001 30.0498Z" fill="white" stroke="white" stroke-width="0.05"/>
<path d="M26.2844 23.6233V23.6368C26.2771 24.6825 25.4241 25.5311 24.3766 25.5311H23.4985L24.8915 24.1381C25.1758 23.8538 25.1758 23.3928 24.8915 23.1084C24.6072 22.824 24.1461 22.824 23.8618 23.1084L22.4688 24.5014V23.6232C22.4688 22.5713 23.3247 21.7154 24.3766 21.7154H26.2844V23.6233ZM27.0126 20.2592H24.3766C22.5217 20.2592 21.0126 21.7683 21.0126 23.6232V25.9576L20.4728 26.4974C20.1884 26.7818 20.1884 27.2428 20.4728 27.5271C20.7571 27.8115 21.2181 27.8115 21.5025 27.5271L22.0423 26.9873H24.3767C26.2317 26.9873 27.7407 25.4782 27.7407 23.6232V20.9873C27.7407 20.5852 27.4147 20.2592 27.0126 20.2592Z" fill="white" stroke="white" stroke-width="0.05"/>
</svg>
